<?xml version="1.0" encoding="UTF-8" standalone="no"?>
<svg
   xmlns:dc="http://purl.org/dc/elements/1.1/"
   xmlns:cc="http://creativecommons.org/ns#"
   xmlns:rdf="http://www.w3.org/1999/02/22-rdf-syntax-ns#"
   xmlns:svg="http://www.w3.org/2000/svg"
   xmlns="http://www.w3.org/2000/svg"
   xmlns:sodipodi="http://sodipodi.sourceforge.net/DTD/sodipodi-0.dtd"
   xmlns:inkscape="http://www.inkscape.org/namespaces/inkscape"
   viewBox="0 0 48 48"
   id="svg2"
   version="1.1"
   inkscape:version="0.48.4 r9939"
   width="100%"
   height="100%"
   sodipodi:docname="desktop-environment-gnome.svg"
   inkscape:export-filename="/home/atila/projects/git-workflow/tarefa-2/assets/desktop-environment-gnome.png"
   inkscape:export-xdpi="240"
   inkscape:export-ydpi="240">
  <metadata
     id="metadata59">
    <rdf:RDF>
      <cc:Work
         rdf:about="">
        <dc:format>image/svg+xml</dc:format>
        <dc:type
           rdf:resource="http://purl.org/dc/dcmitype/StillImage" />
        <dc:title></dc:title>
      </cc:Work>
    </rdf:RDF>
  </metadata>
  <sodipodi:namedview
     pagecolor="#ffffff"
     bordercolor="#666666"
     borderopacity="1"
     objecttolerance="10"
     gridtolerance="10"
     guidetolerance="10"
     inkscape:pageopacity="0"
     inkscape:pageshadow="2"
     inkscape:window-width="640"
     inkscape:window-height="480"
     id="namedview57"
     showgrid="false"
     inkscape:zoom="4.9166667"
     inkscape:cx="24"
     inkscape:cy="24"
     inkscape:window-x="10"
     inkscape:window-y="34"
     inkscape:window-maximized="0"
     inkscape:current-layer="svg2" />
  <defs
     id="defs4">
    <linearGradient
       id="linearGradient3764"
       x1="1"
       x2="47"
       gradientUnits="userSpaceOnUse"
       gradientTransform="matrix(0,-1,1,0,-1.5e-6,47.999998)">
      <stop
         style="stop-color:#5dbacb;stop-opacity:1"
         id="stop7" />
      <stop
         offset="1"
         style="stop-color:#6cc0d0;stop-opacity:1"
         id="stop9" />
    </linearGradient>
    <clipPath
       id="clipPath-909044257">
      <g
         transform="translate(0,-1004.3622)"
         id="g12">
        <path
           d="m -24 13 c 0 1.105 -0.672 2 -1.5 2 -0.828 0 -1.5 -0.895 -1.5 -2 0 -1.105 0.672 -2 1.5 -2 0.828 0 1.5 0.895 1.5 2 z"
           transform="matrix(15.333333,0,0,11.5,414.99999,878.8622)"
           style="fill:#1890d0"
           id="path14" />
      </g>
    </clipPath>
    <clipPath
       id="clipPath-914456074">
      <g
         transform="translate(0,-1004.3622)"
         id="g17">
        <path
           d="m -24 13 c 0 1.105 -0.672 2 -1.5 2 -0.828 0 -1.5 -0.895 -1.5 -2 0 -1.105 0.672 -2 1.5 -2 0.828 0 1.5 0.895 1.5 2 z"
           transform="matrix(15.333333,0,0,11.5,414.99999,878.8622)"
           style="fill:#1890d0"
           id="path19" />
      </g>
    </clipPath>
  </defs>
  <g
     id="g21">
    <path
       d="m 36.31 5 c 5.859 4.062 9.688 10.831 9.688 18.5 c 0 12.426 -10.07 22.5 -22.5 22.5 c -7.669 0 -14.438 -3.828 -18.5 -9.688 c 1.037 1.822 2.306 3.499 3.781 4.969 c 4.085 3.712 9.514 5.969 15.469 5.969 c 12.703 0 23 -10.298 23 -23 c 0 -5.954 -2.256 -11.384 -5.969 -15.469 c -1.469 -1.475 -3.147 -2.744 -4.969 -3.781 z m 4.969 3.781 c 3.854 4.113 6.219 9.637 6.219 15.719 c 0 12.703 -10.297 23 -23 23 c -6.081 0 -11.606 -2.364 -15.719 -6.219 c 4.16 4.144 9.883 6.719 16.219 6.719 c 12.703 0 23 -10.298 23 -23 c 0 -6.335 -2.575 -12.06 -6.719 -16.219 z"
       style="opacity:0.05"
       id="path23" />
    <path
       d="m 41.28 8.781 c 3.712 4.085 5.969 9.514 5.969 15.469 c 0 12.703 -10.297 23 -23 23 c -5.954 0 -11.384 -2.256 -15.469 -5.969 c 4.113 3.854 9.637 6.219 15.719 6.219 c 12.703 0 23 -10.298 23 -23 c 0 -6.081 -2.364 -11.606 -6.219 -15.719 z"
       style="opacity:0.1"
       id="path25" />
    <path
       d="m 31.25 2.375 c 8.615 3.154 14.75 11.417 14.75 21.13 c 0 12.426 -10.07 22.5 -22.5 22.5 c -9.708 0 -17.971 -6.135 -21.12 -14.75 a 23 23 0 0 0 44.875 -7 a 23 23 0 0 0 -16 -21.875 z"
       style="opacity:0.2"
       id="path27" />
  </g>
  <g
     id="g29">
    <path
       d="m 24 1 c 12.703 0 23 10.297 23 23 c 0 12.703 -10.297 23 -23 23 -12.703 0 -23 -10.297 -23 -23 0 -12.703 10.297 -23 23 -23 z"
       style="fill:url(#linearGradient3764);fill-opacity:1"
       id="path31" />
  </g>
  <g
     id="g33">
    <g
       style="clip-path:url(#clipPath-909044257)"
       id="g35"
       clip-path="url(#clipPath-909044257)">
      <g
         transform="translate(1,1)"
         id="g37">
        <g
           style="opacity:0.1"
           id="g39">
          <!-- color: #6cc0d0 -->
          <g
             id="g41">
            <path
               d="m 31.887 13 c -5.121 0 -6.074 7.121 -3.191 7.121 c 2.879 0 8.313 -7.121 3.191 -7.121 m -8.141 0.875 c -2.879 0.367 -1.91 5.285 -0.375 5.375 c 1.535 0.094 3.262 -5.738 0.375 -5.375 m -4.816 1.938 c -0.129 0.016 -0.297 0.07 -0.441 0.125 c -2.316 0.934 -0.355 4.758 0.941 4.5 c 1.219 -0.242 1.395 -4.82 -0.5 -4.625 m -3.633 3 c -0.203 -0.008 -0.395 0.094 -0.629 0.25 c -1.852 1.25 0.602 4.215 1.691 3.75 c 0.953 -0.41 0.348 -3.957 -1.063 -4 m 10.578 2.313 c -3.973 -0.066 -9.184 1.906 -10.07 5.813 c -0.969 4.227 3.969 10.06 9.137 10.06 c 2.543 0 5.461 -2.227 6.01 -5.066 c 0.422 -2.16 -4.883 -1.305 -4.688 0.125 c 0.227 1.715 -1.328 2.547 -2.82 1.441 c -4.742 -3.523 7.844 -5.254 7.02 -10.07 c -0.266 -1.496 -2.188 -2.273 -4.574 -2.313 m 0 0.004"
               style="fill:#000;fill-opacity:1;stroke:none;fill-rule:evenodd"
               id="path43" />
          </g>
        </g>
      </g>
    </g>
  </g>
  <g
     id="g45">
    <g
       style="clip-path:url(#clipPath-914456074)"
       id="g47"
       clip-path="url(#clipPath-914456074)">
      <!-- color: #6cc0d0 -->
      <g
         id="g49">
        <path
           d="m 31.887 13 c -5.121 0 -6.074 7.121 -3.191 7.121 c 2.879 0 8.313 -7.121 3.191 -7.121 m -8.141 0.875 c -2.879 0.367 -1.91 5.285 -0.375 5.375 c 1.535 0.094 3.262 -5.738 0.375 -5.375 m -4.816 1.938 c -0.129 0.016 -0.297 0.07 -0.441 0.125 c -2.316 0.934 -0.355 4.758 0.941 4.5 c 1.219 -0.242 1.395 -4.82 -0.5 -4.625 m -3.633 3 c -0.203 -0.008 -0.395 0.094 -0.629 0.25 c -1.852 1.25 0.602 4.215 1.691 3.75 c 0.953 -0.41 0.348 -3.957 -1.063 -4 m 10.578 2.313 c -3.973 -0.066 -9.184 1.906 -10.07 5.813 c -0.969 4.227 3.969 10.06 9.137 10.06 c 2.543 0 5.461 -2.227 6.01 -5.066 c 0.422 -2.16 -4.883 -1.305 -4.688 0.125 c 0.227 1.715 -1.328 2.547 -2.82 1.441 c -4.742 -3.523 7.844 -5.254 7.02 -10.07 c -0.266 -1.496 -2.188 -2.273 -4.574 -2.313 m 0 0.004"
           style="fill:#f9f9f9;fill-opacity:1;stroke:none;fill-rule:evenodd"
           id="path51" />
      </g>
    </g>
  </g>
  <g
     id="g53">
    <path
       d="m 40.03 7.531 c 3.712 4.084 5.969 9.514 5.969 15.469 0 12.703 -10.297 23 -23 23 c -5.954 0 -11.384 -2.256 -15.469 -5.969 4.178 4.291 10.01 6.969 16.469 6.969 c 12.703 0 23 -10.298 23 -23 0 -6.462 -2.677 -12.291 -6.969 -16.469 z"
       style="opacity:0.1"
       id="path55" />
  </g>
</svg>
